<?xml version="1.0" standalone="no"?>
<!DOCTYPE svg PUBLIC "-//W3C//DTD SVG 20010904//EN"
 "http://www.w3.org/TR/2001/REC-SVG-20010904/DTD/svg10.dtd">
<svg version="1.0" xmlns="http://www.w3.org/2000/svg"
 width="16.000000pt" height="16.000000pt" viewBox="0 0 16.000000 16.000000"
 preserveAspectRatio="xMidYMid meet">
<metadata>
Created by potrace 1.11, written by Peter Selinger 2001-2013
</metadata>
<g transform="translate(0.000000,16.000000) scale(0.001709,-0.001709)"
fill="#000000" stroke="none">
<path d="M0 7211 l0 -1929 499 -1 c382 0 500 3 503 12 2 7 3 686 2 1510 0
1355 1 1497 15 1497 63 1 448 1 456 -1 6 -1 15 0 20 1 32 7 56 6 61 -2 3 -4
10 -6 15 -2 9 5 357 9 384 3 6 -1 15 0 20 1 32 7 56 6 61 -2 3 -4 10 -6 15 -2
8 5 356 8 384 3 6 -1 15 0 20 1 32 7 56 6 61 -2 3 -4 10 -6 15 -3 8 5 1313 9
1344 4 6 -1 15 0 20 1 32 7 56 6 61 -2 3 -4 10 -5 16 -2 5 4 40 6 77 6 l67 0
-1 416 0 417 -2057 3 -2058 2 0 -1929z"/>
<path d="M5244 8719 l0 -420 31 1 c16 1 35 1 40 0 6 -1 15 -1 20 0 32 7 56 6
61 -2 3 -4 10 -6 15 -2 9 5 357 9 384 3 6 -1 15 0 20 1 32 7 56 6 61 -2 3 -4
10 -6 15 -2 8 5 356 8 384 3 6 -1 15 0 20 1 32 7 56 6 61 -2 3 -4 10 -6 15 -3
8 5 1313 9 1344 4 6 -1 15 0 20 1 32 7 56 6 61 -2 3 -4 10 -6 15 -2 8 5 356 8
384 3 6 -1 15 0 20 1 32 7 56 6 61 -1 3 -5 13 -5 22 0 9 5 26 5 38 1 l21 -8
-1 -1489 c-1 -818 0 -1496 2 -1505 4 -16 40 -17 503 -17 l499 1 0 1929 0 1929
-2058 0 -2058 0 0 -421z"/>
<path d="M1133 5172 c-13 -2 -23 -9 -24 -15 -1 -7 -2 -245 -3 -529 -1 -452 1
-517 14 -520 33 -7 3087 -1 3098 6 7 4 10 12 7 17 -9 13 -9 484 -1 497 4 7 4
12 -1 12 -10 0 -9 213 1 229 4 6 4 11 -1 11 -9 0 -9 200 0 224 4 9 3 16 -2 16
-4 0 -6 11 -3 25 l4 25 -1533 2 c-844 2 -1544 2 -1556 0z"/>
<path d="M5164 4638 l1 -532 1548 0 c952 -1 1551 3 1555 8 3 6 6 245 6 533 l1
523 -1556 0 -1556 0 1 -532z"/>
<path d="M17 4092 c-16 -3 -17 -135 -17 -1938 l0 -1934 2058 0 2058 0 -2 413
c0 226 -2 419 -3 427 -1 13 -181 15 -1553 15 l-1553 0 -1 1502 c0 827 -4 1506
-7 1510 -7 6 -947 11 -980 5z"/>
<path d="M8358 4080 c-2 -8 -3 -688 -3 -1511 l1 -1496 -1520 -1 c-837 0 -1537
-1 -1557 -1 l-35 -1 0 -422 1 -423 2058 -3 2057 -2 -2 1937 -3 1936 -497 1
c-434 1 -497 -1 -500 -14z"/>
</g>
</svg>
